<svg width="603" height="603" viewBox="0 0 603 603" fill="none" xmlns="http://www.w3.org/2000/svg">
<rect width="603" height="603" fill="white"/>
<path d="M164.843 383.777C147.798 299.352 164.081 242.837 216.049 205.992C260.394 174.549 326.29 161.32 409.646 144.56L420.94 142.274L433.274 203.36L421.979 205.646C345.829 220.952 285.685 233.072 252.149 256.827C229.768 272.687 211.06 297.551 225.957 371.45L164.843 383.777Z" fill="#2E2B2B"/>
<path d="M181.403 461.693L169.07 400.607L180.364 398.322C256.514 383.016 316.658 370.896 350.194 347.14C372.575 331.28 391.284 306.416 376.386 232.518L437.5 220.19C454.546 304.616 438.262 361.13 386.295 397.976C341.949 429.419 276.054 442.647 192.698 459.408L181.403 461.693Z" fill="#2E2B2B"/>
</svg>
